<svg xmlns="http://www.w3.org/2000/svg" xmlns:xlink="http://www.w3.org/1999/xlink" viewBox="0 0 1024 1024" width="1024" height="1024" preserveAspectRatio="xMidYMid meet" style="width: 100%; height: 100%; transform: translate3d(0px, 0px, 0px); content-visibility: visible;" id="Monkey"><defs><clipPath id="__lottie_element_30381"><rect width="1024" height="1024" x="0" y="0"/></clipPath><clipPath id="__lottie_element_30383"><path d="M0,0 L1024,0 L1024,1024 L0,1024z"/></clipPath><clipPath id="__lottie_element_30388"><path d="M0,0 L1280,0 L1280,1280 L0,1280z"/></clipPath><g id="__lottie_element_30413"><g transform="matrix(0.9459255933761597,0.3243836760520935,-0.3243836760520935,0.9459255933761597,391.15435791015625,18.444580078125)" opacity="1" style="display: block;"><g opacity="1" transform="matrix(1,0,0,1,333.68499755859375,271.4119873046875)"><path fill="rgb(181,142,94)" fill-opacity="1" d=" M238.656005859375,128.0399932861328 C255.00799560546875,93.03299713134766 254.29400634765625,59.53499984741211 254.29400634765625,59.53499984741211 C254.29400634765625,59.53499984741211 333.4360046386719,38.65800094604492 313.510986328125,-59.21699905395508 C296.6830139160156,-142.08999633789062 229.68600463867188,-124.46700286865234 229.68600463867188,-124.46700286865234 C229.68600463867188,-124.46700286865234 184.2010040283203,-219.08799743652344 62.0359992980957,-245.125 C-60.130001068115234,-271.1619873046875 -167.13400268554688,-210.83299255371094 -212.14199829101562,-149.7899932861328 C-264.2950134277344,-78.98300170898438 -255.3249969482422,11.906999588012695 -255.3249969482422,11.906999588012695 C-255.3249969482422,11.906999588012695 -295.57000732421875,8.175999641418457 -314.1449890136719,43.97700119018555 C-333.43499755859375,81.0469970703125 -326.84600830078125,141.53500366210938 -291.0459899902344,169.1580047607422 C-255.3249969482422,196.7030029296875 -199.4409942626953,189.24200439453125 -199.4409942626953,189.24200439453125 C-199.4409942626953,189.24200439453125 -160.70399475097656,230.9949951171875 -116.01300048828125,249.57000732421875 C-70.13200378417969,268.70098876953125 -26.631999969482422,271.1619873046875 26.315000534057617,265.9230041503906 C79.26100158691406,260.6839904785156 117.03199768066406,245.38400268554688 155.50399780273438,220.11900329589844 C193.9759979248047,194.85499572753906 222.3040008544922,163.04600524902344 238.656005859375,128.0399932861328z"/></g><g opacity="1" transform="matrix(1,0,0,1,576.1909790039062,228.5469970703125)"><path fill="rgb(255,202,137)" fill-opacity="1" d=" M-43.301998138427734,-35.00699996948242 C-44.571998596191406,-33.41899871826172 -36.07699966430664,-10.15999984741211 -32.902000427246094,14.130000114440918 C-29.329999923706055,41.040000915527344 -28.2189998626709,67.0770034790039 -25.91699981689453,67.87000274658203 C-21.472000122070312,69.37899780273438 44.571998596191406,52.867000579833984 36.395999908447266,-8.255999565124512 C28.219999313354492,-69.37899780273438 -40.2859992980957,-38.737998962402344 -43.301998138427734,-35.00699996948242z"/></g><g opacity="1" transform="matrix(1,0,0,1,75.30400085449219,371.5899963378906)"><path fill="rgb(255,202,137)" fill-opacity="1" d=" M6.867000102996826,-51.04199981689453 C0.9929999709129333,-55.48699951171875 -37.189998626708984,-44.77000045776367 -32.58599853515625,-1.1109999418258667 C-26.631999969482422,55.48699951171875 29.250999450683594,55.486000061035156 34.4900016784668,51.755001068115234 C37.18899917602539,49.849998474121094 26.552000045776367,24.052000045776367 19.566999435424805,-1.1109999418258667 C12.819000244140625,-25.32200050354004 9.803999900817871,-48.89899826049805 6.867000102996826,-51.04199981689453z"/></g></g></g><mask id="__lottie_element_30413_1" mask-type="alpha"><use xmlns:ns1="http://www.w3.org/1999/xlink" ns1:href="#__lottie_element_30413"/></mask></defs><g clip-path="url(#__lottie_element_30381)"><g clip-path="url(#__lottie_element_30383)" transform="matrix(1,0,0,1,0,0)" opacity="1" style="display: block;"><g clip-path="url(#__lottie_element_30388)" transform="matrix(0.07149919867515564,0.9974406361579895,-0.9974406361579895,0.07149919867515564,1104.6025390625,-172.12149047851562)" opacity="1" style="display: block;"><g transform="matrix(-0.28019729256629944,-0.9599424600601196,0.9599424600601196,-0.28019729256629944,564.9364013671875,724.8441162109375)" opacity="1" style="display: block;"><g opacity="1" transform="matrix(1,0,0,1,70.88700103759766,48.44300079345703)"><path fill="rgb(162,111,46)" fill-opacity="1" d=" M-12.875980377197266,-47.924800872802734 C-14.831390380859375,-52.0314826965332 -36.63286590576172,-72.01617431640625 -81.87286376953125,-40.05717086791992 C-116.53286743164062,-15.572173118591309 -140.7663116455078,17.507061004638672 -169.8600311279297,93.87918853759766 C-192.7090301513672,153.8577880859375 -179.2740478515625,259.3804931640625 -179.2740478515625,259.3804931640625 C-179.2740478515625,259.3804931640625 -117.76544189453125,273.770751953125 -124.36273193359375,240.76564025878906 C-132.11642456054688,201.9759521484375 -130.68106079101562,165.0725555419922 -113.08641052246094,111.48174285888672 C-97.29035186767578,63.085819244384766 -74.19937133789062,28.739843368530273 -52.12126159667969,8.256607055664062 C-22.205286026000977,-20.464176177978516 -10.920570373535156,-43.818115234375 -12.875980377197266,-47.924800872802734z"/></g><g opacity="1" transform="matrix(1,0,0,1,50.06100082397461,71.81099700927734)"><path fill="rgb(181,142,94)" fill-opacity="1" d=" M-139.03370666503906,199.82705688476562 C-158.00534057617188,210.2581024169922 -163.317138671875,213.635498046875 -164.12596130371094,221.93765258789062 C-166.02513122558594,241.42324829101562 -144.59381103515625,310.8932189941406 -112.32858276367188,316.8952941894531 C-80.06334686279297,322.89739990234375 -72.867919921875,301.9300842285156 -83.70368194580078,265.92913818359375 C-91.19282531738281,241.0479736328125 -108.59805297851562,183.01104736328125 -139.03370666503906,199.82705688476562z"/></g></g><g transform="matrix(1,0,0,1,708.135009765625,152.7540283203125)" opacity="1" style="display: block;"><g opacity="1" transform="matrix(1,0,0,1,204.43499755859375,446.0469970703125)"><path fill="rgb(181,142,94)" fill-opacity="1" d=" M-179.163818359375,361.494873046875 C-107.54361724853516,352.29779052734375 -92.31971740722656,369.7754821777344 -33.48051452636719,364.4251403808594 C29.318002700805664,358.0535888671875 100.91083526611328,331.15966796875 144.86843872070312,257.0050048828125 C187.53689575195312,183.46331787109375 193.34487915039062,126.79133605957031 198.41650390625,68.39388275146484 C202.38134765625,22.855234146118164 192.16348266601562,-42.75191116333008 181.6342010498047,-82.6651611328125 C170.72640991210938,-124.75421142578125 162.4860076904297,-147.48681640625 148.56259155273438,-184.04769897460938 C140.07301330566406,-205.89971923828125 122.88128662109375,-236.39772033691406 111.4791259765625,-259.8963928222656 C100.07697296142578,-283.3950500488281 76.64605712890625,-311.1435241699219 48.84934997558594,-321.03265380859375 C21.835275650024414,-330.6432189941406 -8.071503639221191,-314.3100280761719 -11.103790283203125,-287.51165771484375 C-11.813560485839844,-268.9533386230469 -3.6891016960144043,-245.2252960205078 16.791900634765625,-218.42108154296875 C36.20412063598633,-191.72218322753906 52.03163528442383,-164.784423828125 67.70963287353516,-126.7219009399414 C84.45638275146484,-85.78083038330078 96.4827651977539,-42.076759338378906 101.2711181640625,33.86062240600586 C105.53677368164062,102.85417938232422 99.76046752929688,148.8438262939453 57.87869644165039,211.24424743652344 C31.80531120300293,249.91651916503906 8.80813980102539,259.27801513671875 -36.61178970336914,269.0787353515625 C-81.35668182373047,278.72772216796875 -114.44355773925781,259.8166198730469 -174.73997497558594,263.41546630859375 C-235.03639221191406,267.01434326171875 -251.33143615722656,370.9049072265625 -179.163818359375,361.494873046875z"/></g></g><g transform="matrix(1,0,0,1,293.25799560546875,668.3270263671875)" opacity="1" style="display: block;"><g opacity="1" transform="matrix(1,0,0,1,285.0920104980469,208.5030059814453)"><path fill="rgb(162,111,46)" fill-opacity="1" d=" M-192.4223175048828,-213.5760040283203 C-217.91357421875,-224.22154235839844 -262.5552978515625,-227.9352264404297 -296.32421875,-180.69320678710938 C-324.3402099609375,-141.49957275390625 -270.0628356933594,-28.51060676574707 -270.0628356933594,-28.51060676574707 C-270.0628356933594,-28.51060676574707 -258.4639587402344,-11.514552116394043 -258.4639587402344,-11.514552116394043 C-258.4639587402344,-11.514552116394043 -202.95413208007812,-1.605944037437439 -200.4755859375,-32.295982360839844 C-199.23716735839844,-53.09150314331055 -222.46438598632812,-104.11524200439453 -211.32882690429688,-109.0631103515625 C-193.01991271972656,-95.75152587890625 -88.83110046386719,72.86417388916016 16.498899459838867,55.04417037963867 C63.47990036010742,47.09516906738281 89.82732391357422,32.305259704589844 92.74866485595703,-22.928739547729492 C95.64766693115234,-77.74373626708984 70.34442138671875,-77.70127868652344 63.43995666503906,-147.34336853027344 C59.50065612792969,-195.12274169921875 52.25,-249.2530059814453 52.25,-249.2530059814453 C52.25,-249.2530059814453 -73.5260009765625,-288.91400146484375 -73.5260009765625,-288.91400146484375 C-73.5260009765625,-288.91400146484375 -91.35612487792969,-286.5993347167969 -105.21260833740234,-260.4301452636719 C-112.87147521972656,-245.75010681152344 -118.78340911865234,-229.16400146484375 -123.85723876953125,-210.07968139648438 C-127.4820556640625,-195.74215698242188 -129.9927978515625,-173.06271362304688 -129.9927978515625,-173.06271362304688 C-129.9927978515625,-173.06271362304688 -154.4811248779297,-196.35064697265625 -192.4223175048828,-213.5760040283203z"/></g><g opacity="1" transform="matrix(1,0,0,1,84.98799896240234,383.6929931640625)"><path fill="rgb(181,142,94)" fill-opacity="1" d=" M-130.6738739013672,-125.58275604248047 C-134.05545043945312,-100.72478485107422 -91.42222595214844,-85.22357940673828 -46.01728439331055,-106.00292205810547 C-2.1572256088256836,-126.23448944091797 3.6843090057373047,-147.0670166015625 6.092438697814941,-169.27626037597656 C9.580174446105957,-193.1016082763672 0.14610795676708221,-203.48545837402344 0.14610795676708221,-203.48545837402344 C0.14610795676708221,-203.48545837402344 -32.024696350097656,-187.35194396972656 -61.77094650268555,-196.62149047851562 C-73.82791900634766,-200.4204559326172 -66.64308166503906,-182.0840606689453 -74.03760528564453,-171.92396545410156 C-80.82779693603516,-164.41146850585938 -134.00155639648438,-139.32444763183594 -130.6738739013672,-125.58275604248047z"/></g></g><g transform="matrix(1,0,0,1,364.6199951171875,795.0170288085938)" opacity="1" style="display: none;"><g opacity="1" transform="matrix(1,0,0,1,70.88700103759766,48.44300079345703)"><path fill="rgb(162,111,46)" fill-opacity="1" d=" M99.1158447265625,-200.7715301513672 C99.1158447265625,-200.7715301513672 27.612550735473633,-267.7032775878906 -17.832632064819336,-235.92547607421875 C-52.54816436767578,-211.58938598632812 -95.7708740234375,-179.98548889160156 -128.55828857421875,-100.0664291381836 C-152.57302856445312,-41.08580017089844 -155.42002868652344,44.05338668823242 -155.42002868652344,44.05338668823242 C-155.42002868652344,44.05338668823242 -103.0208969116211,79.30011749267578 -97.4785385131836,46.18600845336914 C-90.93161010742188,7.295596122741699 -91.11400604248047,-16.57431983947754 -66.67861938476562,-67.25373077392578 C-44.474735260009766,-113.30535125732422 -0.5194236636161804,-169.4188690185547 49.51198196411133,-160.79745483398438 C133.2141876220703,-146.3731231689453 99.1158447265625,-200.7715301513672 99.1158447265625,-200.7715301513672z"/></g><g opacity="1" transform="matrix(1,0,0,1,50.06100082397461,71.81099700927734)"><path fill="rgb(181,142,94)" fill-opacity="1" d=" M-103.62297058105469,-6.317816257476807 C-125.04680633544922,-3.3344852924346924 -131.17225646972656,-1.9372812509536743 -134.88345336914062,5.525174617767334 C-143.59359741210938,23.039289474487305 -148.37158203125,95.36528015136719 -120.38807678222656,112.45500946044922 C-92.40457153320312,129.54473876953125 -78.28398895263672,112.24231719970703 -75.58155822753906,74.91429901123047 C-73.76714324951172,49.093807220458984 -69.22356414794922,-11.18078899383545 -103.62297058105469,-6.317816257476807z"/></g></g><g transform="matrix(1,0,0,1,364.6199951171875,795.0170288085938)" opacity="1" style="display: none;"><g opacity="1" transform="matrix(1,0,0,1,70.88700103759766,48.44300079345703)"><path fill="rgb(162,111,46)" fill-opacity="1" d=" M43.270999908447266,-43.71900177001953 C43.270999908447266,-43.71900177001953 -31.423999786376953,-33.26900100708008 -31.423999786376953,-33.26900100708008 C-31.423999786376953,-33.26900100708008 -60.560001373291016,-20.950000762939453 -60.020999908447266,7.432000160217285 C-59.481998443603516,35.814998626708984 -38.733001708984375,43.71900177001953 -38.733001708984375,43.71900177001953 C-38.733001708984375,43.71900177001953 60.56100082397461,28.89900016784668 60.56100082397461,28.89900016784668 C60.56100082397461,28.89900016784668 55.47200012207031,7.525000095367432 55.47200012207031,7.525000095367432 C55.47200012207031,7.525000095367432 54.1349983215332,1.9129999876022339 54.1349983215332,1.9129999876022339 C54.1349983215332,1.9129999876022339 43.270999908447266,-43.71900177001953 43.270999908447266,-43.71900177001953z"/></g><g opacity="1" transform="matrix(1,0,0,1,50.06100082397461,71.81099700927734)"><path fill="rgb(181,142,94)" fill-opacity="1" d=" M-31.395000457763672,-47.667999267578125 C-47.19200134277344,-32.82400131225586 -49.81100082397461,-9.32699966430664 -48.54100036621094,-1.0720000267028809 C-45.525001525878906,18.297000885009766 -15.756999969482422,71.56099700927734 17.027000427246094,69.33799743652344 C49.81100082397461,67.11499786376953 34.17300033569336,1.5479999780654907 23.69499969482422,-22.267000198364258 C13.217000007629395,-46.08000183105469 -6.072999954223633,-71.56199645996094 -31.395000457763672,-47.667999267578125z"/></g></g><g transform="matrix(1,0,0,1,371.9230041503906,675.1820068359375)" opacity="1" style="display: block;"><g opacity="1" transform="matrix(1,0,0,1,96.29900360107422,396.4849853515625)"><path fill="rgb(255,202,137)" fill-opacity="1" d=" M206.54962158203125,25.84947395324707 C206.54962158203125,25.84947395324707 214.7427520751953,32.863006591796875 225.37869262695312,36.12677764892578 C256.1966552734375,42.21413040161133 321.90478515625,57.76035690307617 340.2076110839844,55.211509704589844 C358.50970458984375,52.66265869140625 349.0691833496094,16.63603401184082 318.04144287109375,-0.9606034159660339 C287.0137023925781,-18.557241439819336 259.06231689453125,-35.493316650390625 240.6981658935547,-40.17210006713867 C222.33399963378906,-44.850887298583984 191.0310516357422,-44.84981918334961 191.92880249023438,-39.195194244384766 C192.84422302246094,-33.63982391357422 206.54962158203125,25.84947395324707 206.54962158203125,25.84947395324707z"/></g><g opacity="1" transform="matrix(1,0,0,1,257.1090087890625,211.36700439453125)"><path fill="rgb(181,142,94)" fill-opacity="1" d=" M-103.53874206542969,28.172122955322266 C-103.34611511230469,29.87474250793457 -128.4478759765625,39.80702209472656 -148.98593139648438,53.63197708129883 C-175.88523864746094,70.64492797851562 -203.70994567871094,85.6540756225586 -215.446044921875,121.96250915527344 C-228.89010620117188,152.07406616210938 -215.69419860839844,188.11256408691406 -172.77989196777344,206.24893188476562 C-130.6320343017578,223.04095458984375 18.18710708618164,237.92236328125 31.191110610961914,231.88079833984375 C44.25938415527344,225.8094940185547 55.84733581542969,228.0037841796875 62.022220611572266,214.5213623046875 C66.32839965820312,205.11996459960938 62.34993362426758,137.61959838867188 43.31290817260742,139.58018493652344 C29.21637535095215,140.31753540039062 16.684778213500977,139.72947692871094 -1.9503072500228882,137.95510864257812 C-14.295413970947266,137.91671752929688 -49.45370864868164,134.32516479492188 -49.45370864868164,134.32516479492188 C-49.45370864868164,134.32516479492188 -2.132849931716919,132.78160095214844 33.67360305786133,117.69884490966797 C69.3437728881836,102.6905746459961 90.43130493164062,75.98121643066406 92.04684448242188,46.89057159423828 C93.66238403320312,17.799930572509766 81.8209457397461,-9.406149864196777 64.4135513305664,-51.54285430908203 C51.0764045715332,-83.49854278564453 38.60860061645508,-137.4145965576172 37.576229095458984,-169.9263916015625 C44.39657974243164,-236.17552185058594 31.23778533935547,-250.81878662109375 21.165075302124023,-272.5464782714844 C11.799220085144043,-291.672607421875 -64.07123565673828,-318.8472595214844 -95.57563781738281,-300.3273620605469 C-126.60629272460938,-284.7823791503906 -148.31967163085938,-250.6885986328125 -155.08575439453125,-196.3285369873047 C-159.71890258789062,-154.67494201660156 -152.17160034179688,-99.44113159179688 -139.3672637939453,-50.52214050292969 C-128.9762725830078,-11.657470703125 -105.92904663085938,24.56373405456543 -103.53874206542969,28.172122955322266z"/></g></g><g transform="matrix(-0.49784567952156067,-0.8672656416893005,0.8672656416893005,-0.49784567952156067,969.9890747070312,1024.26806640625)" opacity="1" style="display: block;"><g opacity="1" transform="matrix(1,0,0,1,72.84300231933594,92.64800262451172)"><path fill="rgb(255,202,137)" fill-opacity="1" d=" M157.17678833007812,-32.02607727050781 C157.17678833007812,-32.02607727050781 129.84352111816406,18.185787200927734 137.7918243408203,58.60169219970703 C142.83657836914062,84.2546157836914 153.23141479492188,125.69610595703125 178.65170288085938,120.96977996826172 C199.5106658935547,117.09100341796875 200.13543701171875,94.41708374023438 200.992919921875,67.93547821044922 C201.6544189453125,47.492889404296875 196.053955078125,42.19181823730469 201.18698120117188,27.15793800354004 C205.63702392578125,14.124422073364258 200.89739990234375,3.034090757369995 200.89739990234375,3.034090757369995 C200.89739990234375,3.034090757369995 157.17678833007812,-32.02607727050781 157.17678833007812,-32.02607727050781z"/></g><g opacity="1" transform="matrix(1,0,0,1,222.35400390625,79.43099975585938)"><path fill="rgb(181,142,94)" fill-opacity="1" d=" M245.0985565185547,-247.855224609375 C177.9075469970703,-236.1542205810547 109.90763854980469,-183.44912719726562 54.90763854980469,-117.92613220214844 C15.146637916564941,-70.55713653564453 3.9354066848754883,-23.231550216674805 1.1843955516815186,-14.901713371276855 C-1.9147011041641235,-5.519700050354004 40.78500747680664,24.511205673217773 52.62592697143555,16.449792861938477 C57.13149642944336,2.0876705646514893 64.070556640625,-8.890132904052734 76.43555450439453,-28.215133666992188 C92.85855102539062,-53.88313293457031 109.82355499267578,-78.83921813964844 133.0135498046875,-101.73621368408203 C188.2235565185547,-156.24722290039062 239.51455688476562,-160.67221069335938 272.9735412597656,-176.49522399902344 C332.85955810546875,-204.8172149658203 312.28955078125,-259.55621337890625 245.0985565185547,-247.855224609375z"/></g></g><g transform="matrix(0.9459255933761597,0.3243836760520935,-0.3243836760520935,0.9459255933761597,391.15435791015625,18.444580078125)" opacity="1" style="display: block;"><g opacity="1" transform="matrix(1,0,0,1,333.68499755859375,271.4119873046875)"><path fill="rgb(181,142,94)" fill-opacity="1" d=" M238.656005859375,128.0399932861328 C255.00799560546875,93.03299713134766 254.29400634765625,59.53499984741211 254.29400634765625,59.53499984741211 C254.29400634765625,59.53499984741211 333.4360046386719,38.65800094604492 313.510986328125,-59.21699905395508 C296.6830139160156,-142.08999633789062 229.68600463867188,-124.46700286865234 229.68600463867188,-124.46700286865234 C229.68600463867188,-124.46700286865234 184.2010040283203,-219.08799743652344 62.0359992980957,-245.125 C-60.130001068115234,-271.1619873046875 -167.13400268554688,-210.83299255371094 -212.14199829101562,-149.7899932861328 C-264.2950134277344,-78.98300170898438 -255.3249969482422,11.906999588012695 -255.3249969482422,11.906999588012695 C-255.3249969482422,11.906999588012695 -295.57000732421875,8.175999641418457 -314.1449890136719,43.97700119018555 C-333.43499755859375,81.0469970703125 -326.84600830078125,141.53500366210938 -291.0459899902344,169.1580047607422 C-255.3249969482422,196.7030029296875 -199.4409942626953,189.24200439453125 -199.4409942626953,189.24200439453125 C-199.4409942626953,189.24200439453125 -160.70399475097656,230.9949951171875 -116.01300048828125,249.57000732421875 C-70.13200378417969,268.70098876953125 -26.631999969482422,271.1619873046875 26.315000534057617,265.9230041503906 C79.26100158691406,260.6839904785156 117.03199768066406,245.38400268554688 155.50399780273438,220.11900329589844 C193.9759979248047,194.85499572753906 222.3040008544922,163.04600524902344 238.656005859375,128.0399932861328z"/></g><g opacity="1" transform="matrix(1,0,0,1,576.1909790039062,228.5469970703125)"><path fill="rgb(255,202,137)" fill-opacity="1" d=" M-43.301998138427734,-35.00699996948242 C-44.571998596191406,-33.41899871826172 -36.07699966430664,-10.15999984741211 -32.902000427246094,14.130000114440918 C-29.329999923706055,41.040000915527344 -28.2189998626709,67.0770034790039 -25.91699981689453,67.87000274658203 C-21.472000122070312,69.37899780273438 44.571998596191406,52.867000579833984 36.395999908447266,-8.255999565124512 C28.219999313354492,-69.37899780273438 -40.2859992980957,-38.737998962402344 -43.301998138427734,-35.00699996948242z"/></g><g opacity="1" transform="matrix(1,0,0,1,75.30400085449219,371.5899963378906)"><path fill="rgb(255,202,137)" fill-opacity="1" d=" M6.867000102996826,-51.04199981689453 C0.9929999709129333,-55.48699951171875 -37.189998626708984,-44.77000045776367 -32.58599853515625,-1.1109999418258667 C-26.631999969482422,55.48699951171875 29.250999450683594,55.486000061035156 34.4900016784668,51.755001068115234 C37.18899917602539,49.849998474121094 26.552000045776367,24.052000045776367 19.566999435424805,-1.1109999418258667 C12.819000244140625,-25.32200050354004 9.803999900817871,-48.89899826049805 6.867000102996826,-51.04199981689453z"/></g></g><g mask="url(#__lottie_element_30413_1)" style="display: block;"><g transform="matrix(0.9465025067329407,0.3226964473724365,-0.3226964473724365,0.9465025067329407,448.92303466796875,58.686546325683594)" opacity="1"><g opacity="1" transform="matrix(1,0,0,1,194.21400451660156,192.38900756835938)"><path fill="rgb(255,202,137)" fill-opacity="1" d=" M-12.104999542236328,-117.68099975585938 C-47.82600021362305,-105.77400207519531 -97.75599670410156,-163.1649932861328 -141.01800537109375,-117.68099975585938 C-193.96400451660156,-62.03499984741211 -131.01600646972656,-12.026000022888184 -126.09400177001953,26.8700008392334 C-123.0780029296875,50.683998107910156 -136.4929962158203,68.6240005493164 -123.0780029296875,108.79000091552734 C-111.88600158691406,142.28799438476562 -49.731998443603516,192.13800048828125 63.30500030517578,169.197998046875 C169.1179962158203,147.68600463867188 193.96400451660156,80.69000244140625 191.18600463867188,38.540000915527344 C188.08999633789062,-8.45300006866455 166.0229949951172,-11.152000427246094 161.5780029296875,-34.965999603271484 C157.13299560546875,-58.779998779296875 182.13600158691406,-152.60800170898438 109.42500305175781,-172.05599975585938 C34.09299850463867,-192.13900756835938 26.393999099731445,-130.46099853515625 -12.104999542236328,-117.68099975585938z"/></g><g opacity="1" transform="matrix(1,0,0,1,276.2130126953125,136.98199462890625)"><path fill="rgb(5,2,0)" fill-opacity="1" d=" M30.125,-4.881999969482422 C34.56999969482422,21.948999404907227 31.79199981689453,39.808998107910156 12.819999694824219,44.25400161743164 C-9.881999969482422,49.573001861572266 -24.64699935913086,34.17300033569336 -29.091999053955078,6.7870001792907715 C-34.56999969482422,-26.631999969482422 -27.82200050354004,-42.3489990234375 -10.437999725341797,-45.604000091552734 C10.994000434875488,-49.573001861572266 24.56800079345703,-38.61800003051758 30.125,-4.881999969482422z"/></g><g opacity="1" transform="matrix(1,0,0,1,125.51100158691406,165.95599365234375)"><path fill="rgb(5,2,0)" fill-opacity="1" d=" M30.006000518798828,-7.580999851226807 C35.08599853515625,17.979000091552734 35.95899963378906,40.84000015258789 15.479999542236328,46.08000183105469 C-4.126999855041504,51.08100128173828 -20.399999618530273,38.53900146484375 -27.54400062561035,10.914999961853027 C-35.95899963378906,-21.472999572753906 -33.18000030517578,-40.20600128173828 -14.6850004196167,-45.525001525878906 C4.366000175476074,-51.08100128173828 22.14699935913086,-47.270999908447266 30.006000518798828,-7.580999851226807z"/></g><g opacity="1" transform="matrix(1,0,0,1,213.10699462890625,206.5189971923828)"><path fill="rgb(5,2,0)" fill-opacity="1" d=" M-30.759000778198242,-3.374000072479248 C-30.283000946044922,9.486000061035156 -8.45300006866455,25.04400062561035 4.327000141143799,23.059999465942383 C18.138999938964844,20.836999893188477 31.156999588012695,-6.46999979019165 26.632999420166016,-14.565999984741211 C20.757999420166016,-25.04400062561035 -31.1560001373291,-15.121999740600586 -30.759000778198242,-3.374000072479248z"/></g><g opacity="1" transform="matrix(1,0,0,1,225.05299377441406,281.09600830078125)"><path fill="rgb(255,151,25)" fill-opacity="1" d=" M-95.28437805175781,1.9840081930160522 C-93.9961166381836,14.57400131225586 -63.198341369628906,32.00846862792969 6.1006598472595215,18.433467864990234 C77.62165832519531,4.463467597961426 97.21478271484375,-27.04092025756836 95.3066177368164,-34.92837905883789 C93.27255249023438,-43.13764953613281 58.330326080322266,-46.44916534423828 -3.665675163269043,-35.812164306640625 C-52.32567596435547,-27.47716522216797 -96.11730194091797,-8.913664817810059 -95.28437805175781,1.9840081930160522z"/></g></g></g></g></g></g></svg>